<?xml version="1.0" encoding="UTF-8" standalone="no"?>
<!-- Created with Inkscape (http://www.inkscape.org/) -->

<svg
   width="139.63704mm"
   height="106.35567mm"
   viewBox="0 0 139.63704 106.35567"
   version="1.1"
   id="svg1"
   inkscape:version="1.3.2 (091e20e, 2023-11-25, custom)"
   sodipodi:docname="papelDisenio.svg"
   xmlns:inkscape="http://www.inkscape.org/namespaces/inkscape"
   xmlns:sodipodi="http://sodipodi.sourceforge.net/DTD/sodipodi-0.dtd"
   xmlns="http://www.w3.org/2000/svg"
   xmlns:svg="http://www.w3.org/2000/svg">
  <sodipodi:namedview
     id="namedview1"
     pagecolor="#ffffff"
     bordercolor="#000000"
     borderopacity="0.25"
     inkscape:showpageshadow="2"
     inkscape:pageopacity="0.0"
     inkscape:pagecheckerboard="0"
     inkscape:deskcolor="#d1d1d1"
     inkscape:document-units="mm"
     inkscape:zoom="0.73139029"
     inkscape:cx="194.83442"
     inkscape:cy="387.61794"
     inkscape:window-width="1920"
     inkscape:window-height="1017"
     inkscape:window-x="-8"
     inkscape:window-y="-8"
     inkscape:window-maximized="1"
     inkscape:current-layer="layer1" />
  <defs
     id="defs1" />
  <g
     inkscape:label="Capa 1"
     inkscape:groupmode="layer"
     id="layer1"
     transform="translate(-53.17783,-45.581017)">
    <rect
       style="display:inline;fill:#008dc0;fill-opacity:1;stroke-width:0.267894"
       id="rect165"
       width="139.63704"
       height="106.35567"
       x="53.17783"
       y="45.581017" />
    <path
       style="fill:#ececec;fill-opacity:1;stroke-width:0.0790944"
       d="m 55.558062,69.002704 -0.0039,8.17303 4.336862,0.0111 0.0019,-8.15895 z"
       id="path122"
       sodipodi:nodetypes="ccccc" />
    <path
       style="fill:#ececec;fill-opacity:1;stroke-width:0.0790944"
       d="m 55.558062,58.526884 -0.0039,8.17304 4.336863,0.0112 0.0019,-8.15896 z"
       id="path123"
       sodipodi:nodetypes="ccccc" />
    <path
       style="fill:#ececec;fill-opacity:1;stroke-width:0.0790944"
       d="m 55.558062,79.478514 -0.0039,8.17303 4.336863,0.0112 0.0019,-8.15896 z"
       id="path124"
       sodipodi:nodetypes="ccccc" />
    <path
       style="fill:#ececec;fill-opacity:1;stroke-width:0.0790944"
       d="m 55.558062,48.051074 -0.0039,8.17304 4.336863,0.0111 0.0019,-8.15896 z"
       id="path125"
       sodipodi:nodetypes="ccccc" />
    <path
       style="fill:#ececec;fill-opacity:1;stroke-width:0.0790944"
       d="m 55.558062,110.57748 -0.0039,8.17303 4.336862,0.0111 0.0019,-8.15895 z"
       id="path126"
       sodipodi:nodetypes="ccccc" />
    <path
       style="fill:#ececec;fill-opacity:1;stroke-width:0.0790944"
       d="m 55.558062,100.10167 -0.0039,8.17303 4.336863,0.0112 0.0019,-8.15895 z"
       id="path127"
       sodipodi:nodetypes="ccccc" />
    <path
       style="fill:#ececec;fill-opacity:1;stroke-width:0.0790944"
       d="m 55.558062,121.05329 -0.0039,8.17303 4.336863,0.0112 0.0019,-8.15896 z"
       id="path128"
       sodipodi:nodetypes="ccccc" />
    <path
       style="fill:#ececec;fill-opacity:1;stroke-width:0.0790944"
       d="m 55.558062,89.625854 -0.0039,8.17305 4.336863,0.0111 0.0019,-8.15897 z"
       id="path129"
       sodipodi:nodetypes="ccccc" />
    <path
       style="fill:#ececec;fill-opacity:1;stroke-width:0.0790944"
       d="m 121.85191,47.858614 -8.17298,0.0294 0.007,4.33687 8.15889,-0.0313 z"
       id="path130"
       sodipodi:nodetypes="ccccc" />
    <path
       style="fill:#ececec;fill-opacity:1;stroke-width:0.0790944"
       d="m 132.32764,47.815954 -8.17299,0.0294 0.006,4.33688 8.1589,-0.0313 z"
       id="path131"
       sodipodi:nodetypes="ccccc" />
    <path
       style="fill:#ececec;fill-opacity:1;stroke-width:0.0790944"
       d="m 111.37618,47.901264 -8.17298,0.0294 0.006,4.33687 8.1589,-0.0313 z"
       id="path132"
       sodipodi:nodetypes="ccccc" />
    <path
       style="fill:#ececec;fill-opacity:1;stroke-width:0.0790944"
       d="m 142.80337,47.773304 -8.17299,0.0294 0.007,4.33688 8.1589,-0.0313 z"
       id="path133"
       sodipodi:nodetypes="ccccc" />
    <path
       style="fill:#ececec;fill-opacity:1;stroke-width:0.0790944"
       d="m 80.277456,48.027884 -8.172978,0.0294 0.0066,4.33687 8.15889,-0.0313 z"
       id="path134"
       sodipodi:nodetypes="ccccc" />
    <path
       style="fill:#ececec;fill-opacity:1;stroke-width:0.0790944"
       d="m 90.753189,47.985224 -8.172988,0.0294 0.0065,4.33688 8.1589,-0.0313 z"
       id="path135"
       sodipodi:nodetypes="ccccc" />
    <path
       style="fill:#ececec;fill-opacity:1;stroke-width:0.0790944"
       d="m 69.801733,48.070534 -8.172978,0.0294 0.0065,4.33687 8.1589,-0.0313 z"
       id="path136"
       sodipodi:nodetypes="ccccc" />
    <path
       style="fill:#ececec;fill-opacity:1;stroke-width:0.0790944"
       d="m 101.22893,47.942574 -8.173003,0.0294 0.0066,4.33687 8.158913,-0.0313 z"
       id="path137"
       sodipodi:nodetypes="ccccc" />
    <path
       style="fill:#ececec;fill-opacity:1;stroke-width:0.0790944"
       d="m 186.0646,68.306124 -0.004,8.17303 4.33686,0.0111 0.002,-8.15895 z"
       id="path138"
       sodipodi:nodetypes="ccccc" />
    <path
       style="fill:#ececec;fill-opacity:1;stroke-width:0.0790944"
       d="m 186.0646,57.830304 -0.004,8.17304 4.33686,0.0112 0.002,-8.15896 z"
       id="path139"
       sodipodi:nodetypes="ccccc" />
    <path
       style="fill:#ececec;fill-opacity:1;stroke-width:0.0790944"
       d="m 186.0646,78.781934 -0.004,8.17303 4.33686,0.0112 0.002,-8.15896 z"
       id="path140"
       sodipodi:nodetypes="ccccc" />
    <path
       style="fill:#ececec;fill-opacity:1;stroke-width:0.0790944"
       d="m 186.0646,47.354494 -0.004,8.17304 4.33686,0.0111 0.002,-8.15896 z"
       id="path141"
       sodipodi:nodetypes="ccccc" />
    <path
       style="fill:#ececec;fill-opacity:1;stroke-width:0.0790944"
       d="m 186.0646,109.88089 -0.004,8.17303 4.33686,0.0111 0.002,-8.15895 z"
       id="path142"
       sodipodi:nodetypes="ccccc" />
    <path
       style="fill:#ececec;fill-opacity:1;stroke-width:0.0790944"
       d="m 186.0646,99.405094 -0.004,8.173016 4.33686,0.0112 0.002,-8.158936 z"
       id="path143"
       sodipodi:nodetypes="ccccc" />
    <path
       style="fill:#ececec;fill-opacity:1;stroke-width:0.0790944"
       d="m 186.0646,120.3567 -0.004,8.17303 4.33686,0.0112 0.002,-8.15896 z"
       id="path144"
       sodipodi:nodetypes="ccccc" />
    <path
       style="fill:#ececec;fill-opacity:1;stroke-width:0.0790944"
       d="m 186.0646,88.929274 -0.004,8.17305 4.33686,0.0111 0.002,-8.15897 z"
       id="path145"
       sodipodi:nodetypes="ccccc" />
    <path
       style="fill:#ececec;fill-opacity:1;stroke-width:0.0790944"
       d="m 152.98978,47.741434 -8.17229,0.11067 0.0497,4.33659 8.15818,-0.11248 z"
       id="path146"
       sodipodi:nodetypes="ccccc" />
    <path
       style="fill:#ececec;fill-opacity:1;stroke-width:0.0790944"
       d="m 163.46456,47.761864 -8.17229,0.11067 0.0497,4.33659 8.15819,-0.11247 z"
       id="path147"
       sodipodi:nodetypes="ccccc" />
    <path
       style="fill:#ececec;fill-opacity:1;stroke-width:0.0790944"
       d="m 173.93934,47.614884 -8.17229,0.11067 0.0497,4.33659 8.15819,-0.11248 z"
       id="path148"
       sodipodi:nodetypes="ccccc" />
    <path
       style="fill:#ececec;fill-opacity:1;stroke-width:0.0790944"
       d="m 183.99357,47.614884 -8.17229,0.11067 0.0497,4.33659 8.15819,-0.11248 z"
       id="path149"
       sodipodi:nodetypes="ccccc" />
    <path
       style="fill:#ececec;fill-opacity:1;stroke-width:0.0790944"
       d="m 121.85191,144.69641 -8.17298,0.0294 0.007,4.3369 8.15889,-0.0313 z"
       id="path150"
       sodipodi:nodetypes="ccccc" />
    <path
       style="fill:#ececec;fill-opacity:1;stroke-width:0.0790944"
       d="m 132.32764,144.65376 -8.17299,0.0294 0.006,4.3369 8.1589,-0.0313 z"
       id="path151"
       sodipodi:nodetypes="ccccc" />
    <path
       style="fill:#ececec;fill-opacity:1;stroke-width:0.0790944"
       d="m 111.37618,144.73906 -8.17298,0.0294 0.006,4.3369 8.1589,-0.0313 z"
       id="path152"
       sodipodi:nodetypes="ccccc" />
    <path
       style="fill:#ececec;fill-opacity:1;stroke-width:0.0790944"
       d="m 142.80337,144.61111 -8.17299,0.0294 0.007,4.3369 8.1589,-0.0313 z"
       id="path153"
       sodipodi:nodetypes="ccccc" />
    <path
       style="fill:#ececec;fill-opacity:1;stroke-width:0.0790944"
       d="m 80.277456,144.86568 -8.172978,0.0294 0.0066,4.3369 8.15889,-0.0313 z"
       id="path154"
       sodipodi:nodetypes="ccccc" />
    <path
       style="fill:#ececec;fill-opacity:1;stroke-width:0.0790944"
       d="m 90.753189,144.82303 -8.172988,0.0294 0.0065,4.3369 8.1589,-0.0313 z"
       id="path155"
       sodipodi:nodetypes="ccccc" />
    <path
       style="fill:#ececec;fill-opacity:1;stroke-width:0.0790944"
       d="m 69.801733,144.90833 -8.172978,0.0294 0.0065,4.3369 8.1589,-0.0313 z"
       id="path156"
       sodipodi:nodetypes="ccccc" />
    <path
       style="fill:#ececec;fill-opacity:1;stroke-width:0.0790944"
       d="m 101.22893,144.78038 -8.173003,0.0294 0.0066,4.33689 8.158913,-0.0313 z"
       id="path157"
       sodipodi:nodetypes="ccccc" />
    <path
       style="fill:#ececec;fill-opacity:1;stroke-width:0.0790944"
       d="m 152.98978,144.57923 -8.17229,0.11068 0.0497,4.33661 8.15818,-0.11248 z"
       id="path158"
       sodipodi:nodetypes="ccccc" />
    <path
       style="fill:#ececec;fill-opacity:1;stroke-width:0.0790944"
       d="m 163.46456,144.59966 -8.17229,0.11068 0.0497,4.33661 8.15819,-0.11247 z"
       id="path159"
       sodipodi:nodetypes="ccccc" />
    <path
       style="fill:#ececec;fill-opacity:1;stroke-width:0.0790944"
       d="m 173.93934,144.45268 -8.17229,0.11067 0.0497,4.33662 8.15819,-0.11248 z"
       id="path160"
       sodipodi:nodetypes="ccccc" />
    <path
       style="fill:#ececec;fill-opacity:1;stroke-width:0.0790944"
       d="m 183.99357,144.45268 -8.17229,0.11067 0.0497,4.33662 8.15819,-0.11248 z"
       id="path161"
       sodipodi:nodetypes="ccccc" />
    <path
       style="fill:#ececec;fill-opacity:1;stroke-width:0.0790944"
       d="m 186.0646,130.51852 -0.004,8.17303 4.33686,0.0111 0.002,-8.15895 z"
       id="path162"
       sodipodi:nodetypes="ccccc" />
    <path
       style="fill:#ececec;fill-opacity:1;stroke-width:0.0790944"
       d="m 186.0646,140.99433 -0.004,8.17303 4.33686,0.0112 0.002,-8.15896 z"
       id="path163"
       sodipodi:nodetypes="ccccc" />
    <path
       style="fill:#ececec;fill-opacity:1;stroke-width:0.0790944"
       d="m 55.558062,131.21511 -0.0039,8.17303 4.336862,0.0111 0.0019,-8.15895 z"
       id="path164"
       sodipodi:nodetypes="ccccc" />
    <path
       style="fill:#ececec;fill-opacity:1;stroke-width:0.0790944"
       d="m 55.558062,141.69092 -0.0039,8.17303 4.336863,0.0112 0.0019,-8.15896 z"
       id="path165"
       sodipodi:nodetypes="ccccc" />
  </g>
</svg>
