<?xml version="1.0" encoding="UTF-8" standalone="no"?>
<!-- Created with Inkscape (http://www.inkscape.org/) -->

<svg
   width="139.63704mm"
   height="106.35567mm"
   viewBox="0 0 139.63704 106.35567"
   version="1.1"
   id="svg1"
   inkscape:version="1.3.2 (091e20e, 2023-11-25, custom)"
   sodipodi:docname="papelDisenio.svg"
   xmlns:inkscape="http://www.inkscape.org/namespaces/inkscape"
   xmlns:sodipodi="http://sodipodi.sourceforge.net/DTD/sodipodi-0.dtd"
   xmlns="http://www.w3.org/2000/svg"
   xmlns:svg="http://www.w3.org/2000/svg">
  <sodipodi:namedview
     id="namedview1"
     pagecolor="#ffffff"
     bordercolor="#000000"
     borderopacity="0.25"
     inkscape:showpageshadow="2"
     inkscape:pageopacity="0.0"
     inkscape:pagecheckerboard="0"
     inkscape:deskcolor="#d1d1d1"
     inkscape:document-units="mm"
     inkscape:zoom="0.73139029"
     inkscape:cx="194.83442"
     inkscape:cy="386.25068"
     inkscape:window-width="1920"
     inkscape:window-height="1017"
     inkscape:window-x="-8"
     inkscape:window-y="-8"
     inkscape:window-maximized="1"
     inkscape:current-layer="layer1" />
  <defs
     id="defs1" />
  <g
     inkscape:label="Capa 1"
     inkscape:groupmode="layer"
     id="layer1"
     transform="translate(-53.17783,-45.581017)">
    <rect
       style="display:inline;fill:#008dc0;fill-opacity:1;stroke-width:0.267894"
       id="rect165"
       width="139.63704"
       height="106.35567"
       x="53.17783"
       y="45.581017" />
    <path
       style="fill:#ececec;fill-opacity:1;stroke-width:0.0790944"
       d="m 55.558062,69.002704 -0.0039,8.17303 4.336862,0.0111 0.0019,-8.15895 z"
       id="path122"
       sodipodi:nodetypes="ccccc" />
    <path
       style="fill:#ececec;fill-opacity:1;stroke-width:0.0790944"
       d="m 55.558062,58.526884 -0.0039,8.17304 4.336863,0.0112 0.0019,-8.15896 z"
       id="path123"
       sodipodi:nodetypes="ccccc" />
    <path
       style="fill:#ececec;fill-opacity:1;stroke-width:0.0790944"
       d="m 55.558062,79.478514 -0.0039,8.17303 4.336863,0.0112 0.0019,-8.15896 z"
       id="path124"
       sodipodi:nodetypes="ccccc" />
    <path
       style="fill:#ececec;fill-opacity:1;stroke-width:0.0790944"
       d="m 55.558062,48.051074 -0.0039,8.17304 4.336863,0.0111 0.0019,-8.15896 z"
       id="path125"
       sodipodi:nodetypes="ccccc" />
    <path
       style="fill:#ececec;fill-opacity:1;stroke-width:0.0790944"
       d="m 55.558062,110.57748 -0.0039,8.17303 4.336862,0.0111 0.0019,-8.15895 z"
       id="path126"
       sodipodi:nodetypes="ccccc" />
    <path
       style="fill:#ececec;fill-opacity:1;stroke-width:0.0790944"
       d="m 55.558062,100.10167 -0.0039,8.17303 4.336863,0.0112 0.0019,-8.15895 z"
       id="path127"
       sodipodi:nodetypes="ccccc" />
    <path
       style="fill:#ececec;fill-opacity:1;stroke-width:0.0790944"
       d="m 55.558062,121.05329 -0.0039,8.17303 4.336863,0.0112 0.0019,-8.15896 z"
       id="path128"
       sodipodi:nodetypes="ccccc" />
    <path
       style="fill:#ececec;fill-opacity:1;stroke-width:0.0790944"
       d="m 55.558062,89.625854 -0.0039,8.17305 4.336863,0.0111 0.0019,-8.15897 z"
       id="path129"
       sodipodi:nodetypes="ccccc" />
    <path
       style="fill:#ececec;fill-opacity:1;stroke-width:0.0790944"
       d="m 121.85191,47.858614 -8.17298,0.0294 0.007,4.33687 8.15889,-0.0313 z"
       id="path130"
       sodipodi:nodetypes="ccccc" />
    <path
       style="fill:#ececec;fill-opacity:1;stroke-width:0.0790944"
       d="m 132.32764,47.815954 -8.17299,0.0294 0.006,4.33688 8.1589,-0.0313 z"
       id="path131"
       sodipodi:nodetypes="ccccc" />
    <path
       style="fill:#ececec;fill-opacity:1;stroke-width:0.0790944"
       d="m 111.37618,47.901264 -8.17298,0.0294 0.006,4.33687 8.1589,-0.0313 z"
       id="path132"
       sodipodi:nodetypes="ccccc" />
    <path
       style="fill:#ececec;fill-opacity:1;stroke-width:0.0790944"
       d="m 142.80337,47.773304 -8.17299,0.0294 0.007,4.33688 8.1589,-0.0313 z"
       id="path133"
       sodipodi:nodetypes="ccccc" />
    <path
       style="fill:#ececec;fill-opacity:1;stroke-width:0.0790944"
       d="m 80.277456,48.027884 -8.172978,0.0294 0.0066,4.33687 8.15889,-0.0313 z"
       id="path134"
       sodipodi:nodetypes="ccccc" />
    <path
       style="fill:#ececec;fill-opacity:1;stroke-width:0.0790944"
       d="m 90.753189,47.985224 -8.172988,0.0294 0.0065,4.33688 8.1589,-0.0313 z"
       id="path135"
       sodipodi:nodetypes="ccccc" />
    <path
       style="fill:#ececec;fill-opacity:1;stroke-width:0.0790944"
       d="m 69.801733,48.070534 -8.172978,0.0294 0.0065,4.33687 8.1589,-0.0313 z"
       id="path136"
       sodipodi:nodetypes="ccccc" />
    <path
       style="fill:#ececec;fill-opacity:1;stroke-width:0.0790944"
       d="m 101.22893,47.942574 -8.173003,0.0294 0.0066,4.33687 8.158913,-0.0313 z"
       id="path137"
       sodipodi:nodetypes="ccccc" />
    <path
       style="fill:#ececec;fill-opacity:1;stroke-width:0.0790944"
       d="m 186.0646,68.306124 -0.004,8.17303 4.33686,0.0111 0.002,-8.15895 z"
       id="path138"
       sodipodi:nodetypes="ccccc" />
    <path
       style="fill:#ececec;fill-opacity:1;stroke-width:0.0790944"
       d="m 186.0646,57.830304 -0.004,8.17304 4.33686,0.0112 0.002,-8.15896 z"
       id="path139"
       sodipodi:nodetypes="ccccc" />
    <path
       style="fill:#ececec;fill-opacity:1;stroke-width:0.0790944"
       d="m 186.0646,78.781934 -0.004,8.17303 4.33686,0.0112 0.002,-8.15896 z"
       id="path140"
       sodipodi:nodetypes="ccccc" />
    <path
       style="fill:#ececec;fill-opacity:1;stroke-width:0.0790944"
       d="m 186.0646,47.354494 -0.004,8.17304 4.33686,0.0111 0.002,-8.15896 z"
       id="path141"
       sodipodi:nodetypes="ccccc" />
    <path
       style="fill:#ececec;fill-opacity:1;stroke-width:0.0790944"
       d="m 186.0646,109.88089 -0.004,8.17303 4.33686,0.0111 0.002,-8.15895 z"
       id="path142"
       sodipodi:nodetypes="ccccc" />
    <path
       style="fill:#ececec;fill-opacity:1;stroke-width:0.0790944"
       d="m 186.0646,99.405094 -0.004,8.173016 4.33686,0.0112 0.002,-8.158936 z"
       id="path143"
       sodipodi:nodetypes="ccccc" />
    <path
       style="fill:#ececec;fill-opacity:1;stroke-width:0.0790944"
       d="m 186.0646,120.3567 -0.004,8.17303 4.33686,0.0112 0.002,-8.15896 z"
       id="path144"
       sodipodi:nodetypes="ccccc" />
    <path
       style="fill:#ececec;fill-opacity:1;stroke-width:0.0790944"
       d="m 186.0646,88.929274 -0.004,8.17305 4.33686,0.0111 0.002,-8.15897 z"
       id="path145"
       sodipodi:nodetypes="ccccc" />
    <path
       style="fill:#ececec;fill-opacity:1;stroke-width:0.0790944"
       d="m 152.98978,47.741434 -8.17229,0.11067 0.0497,4.33659 8.15818,-0.11248 z"
       id="path146"
       sodipodi:nodetypes="ccccc" />
    <path
       style="fill:#ececec;fill-opacity:1;stroke-width:0.0790944"
       d="m 163.46456,47.761864 -8.17229,0.11067 0.0497,4.33659 8.15819,-0.11247 z"
       id="path147"
       sodipodi:nodetypes="ccccc" />
    <path
       style="fill:#ececec;fill-opacity:1;stroke-width:0.0790944"
       d="m 173.93934,47.614884 -8.17229,0.11067 0.0497,4.33659 8.15819,-0.11248 z"
       id="path148"
       sodipodi:nodetypes="ccccc" />
    <path
       style="fill:#ececec;fill-opacity:1;stroke-width:0.0790944"
       d="m 183.99357,47.614884 -8.17229,0.11067 0.0497,4.33659 8.15819,-0.11248 z"
       id="path149"
       sodipodi:nodetypes="ccccc" />
    <path
       style="fill:#ececec;fill-opacity:1;stroke-width:0.0790944"
       d="m 121.85191,144.69641 -8.17298,0.0294 0.007,4.3369 8.15889,-0.0313 z"
       id="path150"
       sodipodi:nodetypes="ccccc" />
    <path
       style="fill:#ececec;fill-opacity:1;stroke-width:0.0790944"
       d="m 132.32764,144.65376 -8.17299,0.0294 0.006,4.3369 8.1589,-0.0313 z"
       id="path151"
       sodipodi:nodetypes="ccccc" />
    <path
       style="fill:#ececec;fill-opacity:1;stroke-width:0.0790944"
       d="m 111.37618,144.73906 -8.17298,0.0294 0.006,4.3369 8.1589,-0.0313 z"
       id="path152"
       sodipodi:nodetypes="ccccc" />
    <path
       style="fill:#ececec;fill-opacity:1;stroke-width:0.0790944"
       d="m 142.80337,144.61111 -8.17299,0.0294 0.007,4.3369 8.1589,-0.0313 z"
       id="path153"
       sodipodi:nodetypes="ccccc" />
    <path
       style="fill:#ececec;fill-opacity:1;stroke-width:0.0790944"
       d="m 80.277456,144.86568 -8.172978,0.0294 0.0066,4.3369 8.15889,-0.0313 z"
       id="path154"
       sodipodi:nodetypes="ccccc" />
    <path
       style="fill:#ececec;fill-opacity:1;stroke-width:0.0790944"
       d="m 90.753189,144.82303 -8.172988,0.0294 0.0065,4.3369 8.1589,-0.0313 z"
       id="path155"
       sodipodi:nodetypes="ccccc" />
    <path
       style="fill:#ececec;fill-opacity:1;stroke-width:0.0790944"
       d="m 69.801733,144.90833 -8.172978,0.0294 0.0065,4.3369 8.1589,-0.0313 z"
       id="path156"
       sodipodi:nodetypes="ccccc" />
    <path
       style="fill:#ececec;fill-opacity:1;stroke-width:0.0790944"
       d="m 101.22893,144.78038 -8.173003,0.0294 0.0066,4.33689 8.158913,-0.0313 z"
       id="path157"
       sodipodi:nodetypes="ccccc" />
    <path
       style="fill:#ececec;fill-opacity:1;stroke-width:0.0790944"
       d="m 152.98978,144.57923 -8.17229,0.11068 0.0497,4.33661 8.15818,-0.11248 z"
       id="path158"
       sodipodi:nodetypes="ccccc" />
    <path
       style="fill:#ececec;fill-opacity:1;stroke-width:0.0790944"
       d="m 163.46456,144.59966 -8.17229,0.11068 0.0497,4.33661 8.15819,-0.11247 z"
       id="path159"
       sodipodi:nodetypes="ccccc" />
    <path
       style="fill:#ececec;fill-opacity:1;stroke-width:0.0790944"
       d="m 173.93934,144.45268 -8.17229,0.11067 0.0497,4.33662 8.15819,-0.11248 z"
       id="path160"
       sodipodi:nodetypes="ccccc" />
    <path
       style="fill:#ececec;fill-opacity:1;stroke-width:0.0790944"
       d="m 183.99357,144.45268 -8.17229,0.11067 0.0497,4.33662 8.15819,-0.11248 z"
       id="path161"
       sodipodi:nodetypes="ccccc" />
    <path
       style="fill:#ececec;fill-opacity:1;stroke-width:0.0790944"
       d="m 186.0646,130.51852 -0.004,8.17303 4.33686,0.0111 0.002,-8.15895 z"
       id="path162"
       sodipodi:nodetypes="ccccc" />
    <path
       style="fill:#ececec;fill-opacity:1;stroke-width:0.0790944"
       d="m 186.0646,140.99433 -0.004,8.17303 4.33686,0.0112 0.002,-8.15896 z"
       id="path163"
       sodipodi:nodetypes="ccccc" />
    <path
       style="fill:#ececec;fill-opacity:1;stroke-width:0.0790944"
       d="m 55.558062,131.21511 -0.0039,8.17303 4.336862,0.0111 0.0019,-8.15895 z"
       id="path164"
       sodipodi:nodetypes="ccccc" />
    <path
       style="fill:#ececec;fill-opacity:1;stroke-width:0.0790944"
       d="m 55.558062,141.69092 -0.0039,8.17303 4.336863,0.0112 0.0019,-8.15896 z"
       id="path165"
       sodipodi:nodetypes="ccccc" />
    <path
       style="fill:#0246a1;stroke-width:1.36726;fill-opacity:1"
       d="M 0,200.98708 V 0.68362953 H 263.881 527.762 V 200.98708 401.29053 H 263.881 0 Z M 25.977922,378.73076 V 363.00728 H 17.090738 8.2035544 v 15.72348 15.72348 h 8.8871836 8.887184 z m 36.915995,5.46904 v -8.88719 H 47.170438 31.446958 v 8.88719 8.88718 h 15.72348 15.723479 z m 39.650513,-1.53817 v -9.05809 l -4.272685,0.85453 c -2.349977,0.47 -9.425542,0.85454 -15.723479,0.85454 H 71.097471 v 8.20356 8.20355 h 15.723479 15.72348 z m 39.65051,0.17091 v -8.88719 h -15.72348 -15.72348 v 8.88719 8.88718 h 15.72348 15.72348 z m 39.65051,0 v -8.88719 H 166.12198 150.3985 v 8.88719 8.88718 h 15.72348 15.72347 z m 38.28326,0 v -8.88719 h -15.72348 -15.72348 v 8.88719 8.88718 h 15.72348 15.72348 z m 39.65051,0 v -8.88719 h -15.72348 -15.72348 v 8.88719 8.88718 h 15.72348 15.72348 z m 39.65051,0 v -8.88719 h -15.72348 -15.72347 v 8.88719 8.88718 h 15.72347 15.72348 z m 39.65052,0 v -8.88719 h -15.72348 -15.72348 v 8.88719 8.88718 h 15.72348 15.72348 z m 38.28325,0 v -8.88719 h -15.72348 -15.72348 v 8.88719 8.88718 h 15.72348 15.72348 z m 39.65051,0 v -8.88719 h -15.72348 -15.72348 v 8.88719 8.88718 h 15.72348 15.72348 z m 30.27053,7.51992 h 9.37999 v -8.88718 -8.88719 l -4.4436,0.008 c -2.44397,0.005 -9.51954,0.40335 -15.72348,0.88629 l -11.27988,0.87808 v 8.87038 8.87038 l 6.34349,-0.86948 c 3.48893,-0.4782 10.5645,-0.86947 15.72348,-0.86947 z m 38.28325,0 h 9.37999 v -8.88718 -8.88719 l -4.44359,0.008 c -2.44398,0.005 -9.51954,0.40335 -15.72348,0.88629 l -11.27989,0.87808 v 8.87038 8.87038 l 6.3435,-0.86948 c 3.48893,-0.4782 10.56449,-0.86947 15.72347,-0.86947 z m 33.99065,-14.35622 v -15.72348 h -8.88718 -8.88719 v 15.72348 15.72348 h 8.88719 8.88718 z M 25.977922,339.08025 V 323.35677 H 17.090738 8.2035544 v 15.72348 15.72348 h 8.8871836 8.887184 z m 493.580518,-2.73452 v -15.72348 h -8.88718 -8.88719 v 15.72348 15.72348 h 8.88719 8.88718 z M 25.977922,300.79699 V 285.07351 H 17.090738 8.2035544 v 15.72348 15.72348 h 8.8871836 8.887184 z M 519.55844,298.06247 V 282.339 h -8.88718 -8.88719 v 15.72347 15.72348 h 8.88719 8.88718 z M 25.977922,261.14648 V 245.423 H 17.090738 8.2035544 v 15.72348 15.72348 h 8.8871836 8.887184 z m 493.580518,-2.73452 v -15.72348 h -8.88718 -8.88719 v 15.72348 15.72348 h 8.88719 8.88718 z M 25.977922,221.49597 V 205.77249 H 17.090738 8.2035544 v 15.72348 15.72348 h 8.8871836 8.887184 z m 493.580518,-2.73452 v -15.72348 h -8.88718 -8.88719 v 15.72348 15.72348 h 8.88719 8.88718 z M 25.977922,181.84545 V 166.12198 H 17.090738 8.2035544 v 15.72347 15.72348 h 8.8871836 8.887184 z m 493.580518,-2.73451 v -15.72348 h -8.88718 -8.88719 v 15.72348 15.72348 h 8.88719 8.88718 z M 25.977922,143.5622 V 127.83872 H 17.090738 8.2035544 v 15.72348 15.72348 h 8.8871836 8.887184 z M 519.55844,140.82768 V 125.1042 h -8.88718 -8.88719 v 15.72348 15.72348 h 8.88719 8.88718 z M 25.977922,103.91169 V 88.188209 H 17.090738 8.2035544 v 15.723481 15.72348 h 8.8871836 8.887184 z M 519.55844,101.17717 V 85.453691 h -8.88718 -8.88719 v 15.723479 15.72348 h 8.88719 8.88718 z M 25.977922,64.261176 V 48.537697 H 17.090738 8.2035544 v 15.723479 15.723479 h 8.8871836 8.887184 z M 519.55844,61.526658 v -15.72348 h -8.88718 -8.88719 v 15.72348 15.723479 h 8.88719 8.88718 z M 25.977922,24.610663 V 8.8871839 H 17.090738 8.2035544 V 24.610663 40.334142 h 8.8871836 8.887184 z M 519.55844,21.876145 V 6.1526658 h -8.88718 -8.88719 V 21.876145 37.599624 h 8.88719 8.88718 z M 62.893917,17.774368 V 8.8871839 H 47.170438 31.446958 v 8.8871841 8.887184 h 15.72348 15.723479 z m 39.650513,0 V 8.8871839 H 86.82095 71.097471 v 8.8871841 8.887184 h 15.723479 15.72348 z m 39.65051,0 V 8.8871839 h -15.72348 -15.72348 v 8.8871841 8.887184 h 15.72348 15.72348 z m 33.30702,8.017711 6.34349,-0.869473 V 16.904895 8.8871839 H 166.12198 150.3985 v 8.8871841 8.887184 h 9.37998 c 5.15898,0 12.23455,-0.391263 15.72348,-0.869473 z m 44.62675,-9.38497 V 7.5199248 h -7.31936 c -4.02565,0 -11.10122,0.395282 -15.72348,0.8784044 l -8.40412,0.8784043 v 8.0087785 8.008781 h 15.72348 15.72348 z m 39.65051,0 V 7.5199248 h -15.72348 -15.72348 v 8.8871842 8.887184 h 15.72348 15.72348 z m 39.65051,0 V 7.5199248 h -15.72348 -15.72347 v 8.8871842 8.887184 h 15.72347 15.72348 z m 39.65052,0 V 7.5199248 h -15.72348 -15.72348 v 8.8871842 8.887184 h 15.72348 15.72348 z m 38.28325,0 V 7.5199248 h -15.72348 -15.72348 v 8.8871842 8.887184 h 15.72348 15.72348 z m 39.65051,0 V 7.5199248 h -15.72348 -15.72348 v 8.8871842 8.887184 h 15.72348 15.72348 z m 39.65052,0 V 7.5199248 h -15.72348 -15.72348 v 8.8871842 8.887184 h 15.72348 15.72348 z m 38.28325,0 V 7.5199248 H 479.2243 463.50082 v 8.8871842 8.887184 h 15.72348 15.72348 z"
       id="path1"
       transform="matrix(0.26458333,0,0,0.26458333,53.17783,45.581017)" />
  </g>
</svg>
